<?xml version="1.0" encoding="utf-8"?>
<!-- Generator: Adobe Illustrator 27.1.1, SVG Export Plug-In . SVG Version: 6.00 Build 0)  -->
<svg version="1.1" id="Layer_1" xmlns="http://www.w3.org/2000/svg" xmlns:xlink="http://www.w3.org/1999/xlink" x="0px" y="0px"
	 viewBox="0 0 512 512" style="enable-background:new 0 0 512 512;" xml:space="preserve">
<style type="text/css">
	.st0{fill:#FFFFFF;}
</style>
<path class="st0" d="M247.5,25.4c-13.5,3.3-26.4,7.2-38.6,11.7C142.9,61.6,96.7,103.6,66,153.6c-18.3,29.8-30.9,62.3-39.2,95.4
	l237.7,237.6c13.5-3.3,26.4-7.2,38.6-11.7c66-24.5,112.2-66.5,142.9-116.5c18.3-29.8,30.9-62.3,39.1-95.3L247.5,25.4z M495.2,205.3
	c6.1-56.8,1.4-112.2-7.7-156.4c-2.7-12.9-13-22.9-26.1-25.1c-58.2-9.7-109.9-12-155.6-7.9L495.2,205.3z M206.1,496L16.8,306.7
	c-6.1,56.8-1.4,112.2,7.7,156.4c2.7,12.9,13,22.9,26.1,25.1c58.2,9.7,109.9,12,155.6,7.9L206.1,496z M260.7,164.7
	c6.2-6.2,16.4-6.2,22.6,0l64,64c6.2,6.2,6.2,16.4,0,22.6s-16.4,6.2-22.6,0l-64-64C254.5,181.1,254.5,170.9,260.7,164.7z
	 M212.7,212.7c6.2-6.2,16.4-6.2,22.6,0l64,64c6.2,6.2,6.2,16.4,0,22.6s-16.4,6.2-22.6,0l-64-64C206.5,229.1,206.5,218.9,212.7,212.7
	z M164.7,260.7c6.2-6.2,16.4-6.2,22.6,0l64,64c6.2,6.2,6.2,16.4,0,22.6s-16.4,6.2-22.6,0l-64-64
	C158.5,277.1,158.5,266.9,164.7,260.7z"/>
</svg>
